<svg width="693" height="692" xmlns="http://www.w3.org/2000/svg" xmlns:xlink="http://www.w3.org/1999/xlink" overflow="hidden"><defs><clipPath id="clip0"><path d="M294 14 987 14 987 706 294 706Z" fill-rule="evenodd" clip-rule="evenodd"/></clipPath><linearGradient x1="587.5" y1="413.5" x2="296.5" y2="704.5" gradientUnits="userSpaceOnUse" spreadMethod="reflect" id="fill1"><stop offset="0" stop-color="#585858"/><stop offset="0.27" stop-color="#585858"/><stop offset="0.66"/><stop offset="1"/></linearGradient><linearGradient x1="448.25" y1="294.75" x2="706.75" y2="553.25" gradientUnits="userSpaceOnUse" spreadMethod="reflect" id="fill2"><stop offset="0" stop-color="#262626"/><stop offset="0.04" stop-color="#262626"/><stop offset="0.5" stop-color="#F6F8FC"/><stop offset="1" stop-color="#262626"/></linearGradient><linearGradient x1="971.159" y1="5.22502" x2="724.841" y2="298.775" gradientUnits="userSpaceOnUse" spreadMethod="reflect" id="fill3"><stop offset="0" stop-color="#666666"/><stop offset="0.14" stop-color="#666666"/><stop offset="0.55" stop-color="#F2F2F2"/><stop offset="1" stop-color="#F2F2F2"/></linearGradient><linearGradient x1="460" y1="26.9999" x2="971" y2="538" gradientUnits="userSpaceOnUse" spreadMethod="reflect" id="fill4"><stop offset="0" stop-color="#595959"/><stop offset="0.04" stop-color="#595959"/><stop offset="0.5" stop-color="#F6F8FC"/><stop offset="1" stop-color="#7F7F7F"/></linearGradient></defs><g clip-path="url(#clip0)" transform="translate(-294 -14)"><path d="M459.806 414.138C457.67 413.45 339.949 399.848 331.117 543.122 326.126 624.053 296.5 696.72 296.5 696.72 296.5 696.72 296.841 697.058 296.875 697.09L421.591 572.09C410.281 556.502 411.901 534.24 426.246 519.865 442.089 503.986 467.516 503.72 482.986 519.23 498.456 534.733 498.158 560.184 482.316 576.06 467.984 590.43 445.794 592.07 430.247 580.769L306.788 704.5C315.798 700.927 382.991 675.132 458.173 670.471 601.123 661.619 587.552 543.628 586.863 541.487L459.806 414.138Z" stroke="#000000" stroke-width="3" stroke-linejoin="round" stroke-miterlimit="10" fill="url(#fill1)" fill-rule="evenodd"/><path d="M480.945 293 705 516.497 597.479 555C582.164 539.729 450 407.891 450 407.891L480.945 293Z" stroke="#000000" stroke-width="4" stroke-linejoin="round" stroke-miterlimit="10" fill="url(#fill2)" fill-rule="evenodd"/><path d="M961.074 265.072C919.354 306.795 834.902 289.991 772.457 227.542 710.007 165.095 693.208 80.648 734.926 38.9282 776.647-2.79438 861.099 14.0092 923.543 76.4585 985.991 138.905 1002.79 223.352 961.074 265.072Z" stroke="#000000" stroke-width="4" stroke-linejoin="round" stroke-miterlimit="10" fill="url(#fill3)" fill-rule="evenodd"/><path d="M723.626 27.5001 971.5 275.372 708.372 538.5 460.5 290.626 723.626 27.5001Z" stroke="#000000" stroke-width="5" stroke-linejoin="round" stroke-miterlimit="10" fill="#152740" fill-rule="evenodd"/><path d="M723.126 27 971 274.872 707.872 538 460 290.126 723.126 27Z" fill="url(#fill4)" fill-rule="evenodd"/></g></svg>